{"title":"Saheb Biwi Aur Gangster Returns 2013 1CD RIP (IcTv) - Hindi","uid":8232392,"size":716145406,"categoryP":"video","categoryS":"movies","magnet":"?xt=urn:btih:87156cca8eaa7436875f2a60d9ccab844e619c2c&amp;dn=Saheb+Biwi+Aur+Gangster+Returns+2013+1CD+RIP+%28IcTv%29+-+Hindi&amp;tr=udp%3A%2F%2Ftracker.openbittorrent.com%3A80&amp;tr=udp%3A%2F%2Fopen.demonii.com%3A1337&amp;tr=udp%3A%2F%2Ftracker.coppersurfer.tk%3A6969&amp;tr=udp%3A%2F%2Fexodus.desync.com%3A6969","seeders":1,"leechers":0,"uploader":"SJonam","files":1,"time":1362757065,"description":" &lt;a href=&quot;http://desibbrg.org/images/66952052392581364616.gif&quot; rel=&quot;nofollow&quot; target=&quot;_NEW&quot;&gt;http://desibbrg.org/images/66952052392581364616.gif&lt;/a&gt; &lt;a href=&quot;\nhttp://desibbrg.org/images/60839542976772035560.jpg&quot; rel=&quot;nofollow&quot; target=&quot;_NEW&quot;&gt;\nhttp://desibbrg.org/images/60839542976772035560.jpg&lt;/a&gt; &lt;a href=&quot;\nhttp://desibbrg.org/images/81600308335733736434.png&quot; rel=&quot;nofollow&quot; target=&quot;_NEW&quot;&gt;\nhttp://desibbrg.org/images/81600308335733736434.png&lt;/a&gt; &lt;a href=&quot;\nhttp://desibbrg.org/images/26668999349123875260.png&quot; rel=&quot;nofollow&quot; target=&quot;_NEW&quot;&gt;\nhttp://desibbrg.org/images/26668999349123875260.png&lt;/a&gt; &lt;a href=&quot;\nhttp://desibbrg.org/images/33648785363759494705.png&quot; rel=&quot;nofollow&quot; target=&quot;_NEW&quot;&gt;\nhttp://desibbrg.org/images/33648785363759494705.png&lt;/a&gt; &lt;a href=&quot;\nhttp://desibbrg.org/images/61043101780252744285.png&quot; rel=&quot;nofollow&quot; target=&quot;_NEW&quot;&gt;\nhttp://desibbrg.org/images/61043101780252744285.png&lt;/a&gt;\n\nMedia Info - \nGeneral\nComplete name                    : Saheb Biwi Aur Gangster Returns(2013)1 CD RIPTeam IcTv Exclusive.avi\nFormat                           : AVI\nFormat/Info                      : Audio Video Interleave\nFile size                        : 682 MiB\nDuration                         : 1h 51mn\nOverall bit rate                 : 856 Kbps\nWriting application              : Lavf52.93.0\n\nVideo\nID                               : 0\nFormat                           : MPEG-4 Visual\nFormat profile                   : Simple@L1\nFormat settings, BVOP            : No\nFormat settings, QPel            : No\nFormat settings, GMC             : No warppoints\nFormat settings, Matrix          : Default (H.263)\nCodec ID                         : DIVX\nCodec ID/Info                    : Project Mayo\nCodec ID/Hint                    : DivX 4\nDuration                         : 1h 51mn\nBit rate                         : 685 Kbps\nWidth                            : 352 pixels\nHeight                           : 288 pixels\nDisplay aspect ratio             : 16:9\nFrame rate                       : 29.970 fps\nStandard                         : PAL\nColor space                      : YUV\nChroma subsampling               : 4:2:0\nBit depth                        : 8 bits\nScan type                        : Progressive\nCompression mode                 : Lossy\nBits/(Pixel*Frame)               : 0.225\nStream size                      : 546 MiB (80%)\nWriting library                  : Lavc52.108.0\n\nAudio\nID                               : 1\nFormat                           : MPEG Audio\nFormat version                   : Version 1\nFormat profile                   : Layer 3\nMode                             : Joint stereo\nMode extension                   : MS Stereo\nCodec ID                         : 55\nCodec ID/Hint                    : MP3\nDuration                         : 1h 51mn\nBit rate mode                    : Constant\nBit rate                         : 128 Kbps\nChannel(s)                       : 2 channels\nSampling rate                    : 44.1 KHz\nCompression mode                 : Lossy\nStream size                      : 102 MiB (15%)\nAlignment                        : Aligned on interleaves\nWriting library                  : LAME3.98\n\nRipper : Master Mind\n\nSeeding 24x7... Extreme Seeding...\n\n\nEnjoy!\n","torrent":{"xt":"urn:btih:87156cca8eaa7436875f2a60d9ccab844e619c2c","amp;dn":"Saheb+Biwi+Aur+Gangster+Returns+2013+1CD+RIP+%28IcTv%29+-+Hindi","amp;tr":["udp%3A%2F%2Ftracker.openbittorrent.com%3A80","udp%3A%2F%2Fopen.demonii.com%3A1337","udp%3A%2F%2Ftracker.coppersurfer.tk%3A6969","udp%3A%2F%2Fexodus.desync.com%3A6969"],"infoHash":"87156cca8eaa7436875f2a60d9ccab844e619c2c","infoHashBuffer":{"type":"Buffer","data":[135,21,108,202,142,170,116,54,135,95,42,96,217,204,171,132,78,97,156,44]},"announce":[],"urlList":[]}}